<?xml version="1.0" encoding="utf-8"?>
<!-- Generator: Adobe Illustrator 15.0.0, SVG Export Plug-In . SVG Version: 6.00 Build 0)  -->
<!DOCTYPE svg PUBLIC "-//W3C//DTD SVG 1.1//EN" "http://www.w3.org/Graphics/SVG/1.1/DTD/svg11.dtd">
<svg version="1.1" id="Layer_1" xmlns="http://www.w3.org/2000/svg" xmlns:xlink="http://www.w3.org/1999/xlink" x="0px" y="0px"
	 width="750px" height="500px" viewBox="0 0 750 500" enable-background="new 0 0 750 500" xml:space="preserve">
<g>
	<defs>
		<rect id="SVGID_1_" width="750" height="500"/>
	</defs>
	<clipPath id="SVGID_2_">
		<use xlink:href="#SVGID_1_"  overflow="visible"/>
	</clipPath>
	<rect clip-path="url(#SVGID_2_)" fill="#FFFFFF" width="750" height="500"/>
	<g clip-path="url(#SVGID_2_)">
		<defs>
			<path id="SVGID_3_" d="M269.482,0c-12.777,0-25.394,50.214-26.655,60.552c-4.682,38.367,19.482,79.55,42.991,107.919
				c26.771,32.309,51.616,65.47,61.331,107.196c9.184,39.451,2.832,93.235-30.159,121.054
				c-36.049,30.398-91.478,21.159-134.583,30.016c-39.284,8.07-74.299,36.7-90.974,73.264H750V0H269.482z"/>
		</defs>
		<clipPath id="SVGID_4_">
			<use xlink:href="#SVGID_3_"  overflow="visible"/>
		</clipPath>
		
			<linearGradient id="SVGID_5_" gradientUnits="userSpaceOnUse" x1="0" y1="500" x2="1" y2="500" gradientTransform="matrix(771.6065 0 0 -771.6065 126.5601 386053.2188)">
			<stop  offset="0" style="stop-color:#9600FF"/>
			<stop  offset="0.1601" style="stop-color:#9600FF"/>
			<stop  offset="1" style="stop-color:#F900FF"/>
		</linearGradient>
		<rect x="91.433" clip-path="url(#SVGID_4_)" fill="url(#SVGID_5_)" width="658.567" height="500"/>
	</g>
	<g display="none" clip-path="url(#SVGID_2_)">
		
			<text transform="matrix(1 0 0 1 286.6924 48.999)" display="inline" fill="#FFFFFF" font-family="'Raleway-Medium'" font-size="9.6749">home</text>
	</g>
	<g display="none" clip-path="url(#SVGID_2_)">
		<text transform="matrix(1 0 0 1 351.4854 48.999)" display="inline"><tspan x="0" y="0" fill="#FFFFFF" font-family="'Raleway-Medium'" font-size="9.6749">servi</tspan><tspan x="18.759" y="0" fill="#FFFFFF" font-family="'Raleway-Medium'" font-size="9.6749">c</tspan><tspan x="23.055" y="0" fill="#FFFFFF" font-family="'Raleway-Medium'" font-size="9.6749">e</tspan></text>
	</g>
	<g display="none" clip-path="url(#SVGID_2_)">
		
			<text transform="matrix(1 0 0 1 421.5508 48.999)" display="inline" fill="#FFFFFF" font-family="'Raleway-Medium'" font-size="9.6749">join us</text>
	</g>
	<g display="none" clip-path="url(#SVGID_2_)">
		
			<text transform="matrix(1 0 0 1 490.0977 48.999)" display="inline" fill="#FFFFFF" font-family="'Raleway-Medium'" font-size="9.6749">about</text>
	</g>
	<g display="none" clip-path="url(#SVGID_2_)">
		<text transform="matrix(1 0 0 1 547.5957 48.999)" display="inline"><tspan x="0" y="0" fill="#FFFFFF" font-family="'Raleway-Medium'" font-size="9.6749">c</tspan><tspan x="4.296" y="0" fill="#FFFFFF" font-family="'Raleway-Medium'" font-size="9.6749">o</tspan><tspan x="9.607" y="0" fill="#FFFFFF" font-family="'Raleway-Medium'" font-size="9.6749">n</tspan><tspan x="14.928" y="0" fill="#FFFFFF" font-family="'Raleway-Medium'" font-size="9.6749">tact us</tspan></text>
	</g>
	<g display="none" clip-path="url(#SVGID_2_)">
		<defs>
			<rect id="SVGID_6_" width="750" height="500"/>
		</defs>
		<clipPath id="SVGID_7_" display="inline">
			<use xlink:href="#SVGID_6_"  overflow="visible"/>
		</clipPath>
		<path display="inline" clip-path="url(#SVGID_7_)" fill="#FFFFFF" d="M712.79,53.243h-66.229c-4.015,0-7.3-3.285-7.3-7.301
			c0-4.016,3.285-7.302,7.3-7.302h66.229c4.016,0,7.302,3.286,7.302,7.302C720.092,49.958,716.806,53.243,712.79,53.243"/>
		<path display="inline" clip-path="url(#SVGID_7_)" fill="#C3E3E8" d="M712.631,42.35c-1.415-1.415-3.71-1.415-5.125,0
			c-1.416,1.416-1.416,3.71,0,5.125c1.214,1.214,3.073,1.384,4.471,0.516l2.363,2.362c0.321,0.321,0.847,0.322,1.168,0
			c0.322-0.321,0.322-0.848,0-1.169l-2.362-2.362C714.015,45.423,713.845,43.564,712.631,42.35 M711.88,46.725c-1,1-2.623,1-3.624,0
			c-1.001-1.001-1.001-2.624,0-3.624c1.001-1.001,2.624-1.001,3.624,0C712.881,44.101,712.881,45.724,711.88,46.725"/>
	</g>
	<g clip-path="url(#SVGID_2_)">
		<defs>
			<rect id="SVGID_8_" width="750" height="500"/>
		</defs>
		<clipPath id="SVGID_9_">
			<use xlink:href="#SVGID_8_"  overflow="visible"/>
		</clipPath>
	</g>
	<g clip-path="url(#SVGID_2_)">
		<defs>
			<rect id="SVGID_10_" width="750" height="500"/>
		</defs>
		<clipPath id="SVGID_11_">
			<use xlink:href="#SVGID_10_"  overflow="visible"/>
		</clipPath>
		<path clip-path="url(#SVGID_11_)" fill="#FFBC00" d="M383.802,257.483c-3.191-5.741-10.432-7.808-16.173-4.617
			c-5.741,3.191-7.808,10.432-4.617,16.173s24.917,20.351,24.917,20.351S386.992,263.225,383.802,257.483"/>
		<path clip-path="url(#SVGID_11_)" fill="#B810FD" d="M378.534,260.411c-1.574-2.831-5.146-3.851-7.978-2.277
			c-2.831,1.574-3.851,5.146-2.277,7.978c1.574,2.832,5.146,3.852,7.978,2.277C379.088,266.814,380.107,263.243,378.534,260.411"/>
		<g opacity="0.28" clip-path="url(#SVGID_11_)">
			<g>
				<defs>
					<rect id="SVGID_12_" x="242.399" width="507.601" height="322.26"/>
				</defs>
				<clipPath id="SVGID_13_">
					<use xlink:href="#SVGID_12_"  overflow="visible"/>
				</clipPath>
				<g clip-path="url(#SVGID_13_)">
					<g>
						<defs>
							<rect id="SVGID_14_" x="242.399" width="289.036" height="308.822"/>
						</defs>
						<clipPath id="SVGID_15_">
							<use xlink:href="#SVGID_14_"  overflow="visible"/>
						</clipPath>
						<g clip-path="url(#SVGID_15_)">
							<defs>
								<path id="SVGID_16_" d="M522.45,298.688c-7.219-0.322-14.405-0.923-21.45-1.688
									C508.045,297.766,515.231,298.366,522.45,298.688c16.41-43.399,11.285-110.476-23.214-144.784
									c-17.316-17.221-37.74-30.979-55.325-47.977c-18.44-17.826-35.705-36.818-52.856-55.872
									c-6.427-7.139-12.736-14.117-17.977-22.201C371.428,25.31,359.752,0,359.257,0h-89.775
									c-12.776,0-25.394,50.214-26.655,60.551c-0.202,1.655-0.331,3.316-0.428,4.98C243.532,67.7,244.728,69.857,246,72
									c27,44,75,62,121,75c66.668,18.254,121.988,71.156,129.484,135.203c3.699,1.487,7.522,2.777,11.516,3.797
									c-3.993-1.02-7.816-2.31-11.516-3.797c0.968,8.263,1.122,16.714,0.417,25.297c1.692,0.164,3.388,0.316,5.084,0.458
									c-0.662-0.318-1.329-0.63-1.985-0.958c0.656,0.328,1.323,0.64,1.985,0.958c5.36,0.445,10.734,0.765,16.09,0.864
									C519.691,305.497,521.154,302.117,522.45,298.688"/>
							</defs>
							<clipPath id="SVGID_17_">
								<use xlink:href="#SVGID_16_"  overflow="visible"/>
							</clipPath>
							
								<linearGradient id="SVGID_18_" gradientUnits="userSpaceOnUse" x1="-4.882813e-004" y1="500" x2="0.9995" y2="500" gradientTransform="matrix(289.0359 0 0 -289.0359 242.5189 144672.2656)">
								<stop  offset="0" style="stop-color:#9600FF"/>
								<stop  offset="0.1601" style="stop-color:#9600FF"/>
								<stop  offset="1" style="stop-color:#F900FF"/>
							</linearGradient>
							<rect x="242.399" clip-path="url(#SVGID_17_)" fill="url(#SVGID_18_)" width="296.461" height="308.822"/>
						</g>
					</g>
				</g>
				<g clip-path="url(#SVGID_13_)">
					<g>
						<defs>
							<rect id="SVGID_19_" x="537.456" width="147.979" height="298.917"/>
						</defs>
						<clipPath id="SVGID_20_">
							<use xlink:href="#SVGID_19_"  overflow="visible"/>
						</clipPath>
						<g clip-path="url(#SVGID_20_)">
							<defs>
								<path id="SVGID_21_" d="M627.292,253.086c14.808-19.961,22.901-43.79,24.96-73.296C655.094,139.049,649.844,97.057,659,57
									c5.29-20.28,11.364-41.334,26.438-57H585.242c-0.08,0.333-0.166,0.667-0.242,1c-1,1-3,1-4,2c-3,11-8,20-11,29
									c-4,18-11,34-12,52c-4,61,12,122-2,182c-3.072,11.906-9.693,23.214-18.544,32.917c15.839-0.262,31.473-2.264,45.769-7.202
									C601.758,280.462,616.355,267.828,627.292,253.086"/>
							</defs>
							<clipPath id="SVGID_22_">
								<use xlink:href="#SVGID_21_"  overflow="visible"/>
							</clipPath>
							
								<linearGradient id="SVGID_23_" gradientUnits="userSpaceOnUse" x1="0" y1="500" x2="1" y2="500" gradientTransform="matrix(147.9806 0 0 -147.9806 537.4034 74139.75)">
								<stop  offset="0" style="stop-color:#9600FF"/>
								<stop  offset="0.1601" style="stop-color:#9600FF"/>
								<stop  offset="1" style="stop-color:#F900FF"/>
							</linearGradient>
							<rect x="537.456" clip-path="url(#SVGID_22_)" fill="url(#SVGID_23_)" width="147.98" height="298.917"/>
						</g>
					</g>
				</g>
				<g clip-path="url(#SVGID_13_)">
					<g>
						<defs>
							<rect id="SVGID_24_" x="518.826" y="150.682" width="231.174" height="171.578"/>
						</defs>
						<clipPath id="SVGID_25_">
							<use xlink:href="#SVGID_24_"  overflow="visible"/>
						</clipPath>
						<g clip-path="url(#SVGID_25_)">
							<defs>
								<path id="SVGID_26_" d="M625.134,306.629c0.57-0.141,1.146-0.262,1.724-0.361c2.132-0.366,4.313-0.367,6.442-0.74
									c3.342-0.585,6.457-2.067,9.415-3.729c10.156-5.702,18.878-13.599,28.352-20.375c22.556-16.13,52.246-18.364,78.934-13.142
									c0,0,0-117.601-0.002-117.6c-34.388,15.001-62.506,41.248-87.727,68.416c-12.63,13.603-25.092,27.544-36.933,41.84
									c-12.802,15.458-25.59,20.743-42.114,30.776c-3.004,1.824-6.071,3.592-9.225,5.285
									c-14.624,8.189-30.616,11.241-46.977,11.768c-2.625,2.143-5.366,4.152-8.197,6.022c2.281-1.507,23.223,5.758,27.195,6.278
									c9.974,1.305,20.096,1.57,30.113,0.636c9.342-0.87,18.707-2.723,27.598-5.753
									C610.949,313.492,617.715,308.452,625.134,306.629"/>
							</defs>
							<clipPath id="SVGID_27_">
								<use xlink:href="#SVGID_26_"  overflow="visible"/>
							</clipPath>
							
								<linearGradient id="SVGID_28_" gradientUnits="userSpaceOnUse" x1="-4.882813e-004" y1="499.998" x2="0.9995" y2="499.998" gradientTransform="matrix(231.1735 0 0 -231.1735 518.8096 115823.1719)">
								<stop  offset="0" style="stop-color:#9600FF"/>
								<stop  offset="0.1601" style="stop-color:#9600FF"/>
								<stop  offset="1" style="stop-color:#F900FF"/>
							</linearGradient>
							<rect x="518.826" y="150.681" clip-path="url(#SVGID_27_)" fill="url(#SVGID_28_)" width="231.174" height="171.958"/>
						</g>
					</g>
				</g>
				<g clip-path="url(#SVGID_13_)">
					<g>
						<defs>
							<rect id="SVGID_29_" x="303.222" y="188.434" width="194.116" height="126.095"/>
						</defs>
						<clipPath id="SVGID_30_">
							<use xlink:href="#SVGID_29_"  overflow="visible"/>
						</clipPath>
						<g clip-path="url(#SVGID_30_)">
							<defs>
								<path id="SVGID_31_" d="M496.484,282.203C456.647,266.184,432.517,225.216,395,206
									c-27.78-14.584-60.381-20.957-91.778-15.793c12.346,16.162,23.53,32.938,32.015,51.225c0.589-0.148,1.178-0.297,1.765-0.432
									c15.704-3.739,35.7-5.91,51.566-2.215c22.596,5.262,43.888,25.867,58.814,42.934c7.011,8.016,13.187,17.134,21.725,23.672
									c2.078,1.592,26.477,13.896,27.298,7.115c0.202-1.674,0.359-3.341,0.496-5.006c-1.637-0.158-3.271-0.325-4.901-0.5
									c1.631,0.175,3.265,0.342,4.901,0.5C497.606,298.917,497.452,290.466,496.484,282.203"/>
							</defs>
							<clipPath id="SVGID_32_">
								<use xlink:href="#SVGID_31_"  overflow="visible"/>
							</clipPath>
							
								<linearGradient id="SVGID_33_" gradientUnits="userSpaceOnUse" x1="-4.882813e-004" y1="499.9961" x2="0.9995" y2="499.9961" gradientTransform="matrix(194.1164 0 0 -194.1164 303.2158 97309.7188)">
								<stop  offset="0" style="stop-color:#9600FF"/>
								<stop  offset="0.1601" style="stop-color:#9600FF"/>
								<stop  offset="1" style="stop-color:#F900FF"/>
							</linearGradient>
							<rect x="303.222" y="185.043" clip-path="url(#SVGID_32_)" fill="url(#SVGID_33_)" width="194.383" height="134.243"/>
						</g>
					</g>
				</g>
			</g>
		</g>
		<g opacity="0.5" clip-path="url(#SVGID_11_)">
			<g>
				<defs>
					<rect id="SVGID_34_" x="241.222" y="66.932" width="464.318" height="392.959"/>
				</defs>
				<clipPath id="SVGID_35_">
					<use xlink:href="#SVGID_34_"  overflow="visible"/>
				</clipPath>
				
					<circle clip-path="url(#SVGID_35_)" fill="none" stroke="#FFFFFF" stroke-width="2" stroke-miterlimit="10" stroke-dasharray="3.016,3.016" cx="656.324" cy="110.184" r="42.251"/>
				
					<circle clip-path="url(#SVGID_35_)" fill="none" stroke="#FFFFFF" stroke-width="2" stroke-miterlimit="10" stroke-dasharray="3.036,3.036" cx="656.324" cy="110.184" r="33.831"/>
				
					<circle clip-path="url(#SVGID_35_)" fill="none" stroke="#FFFFFF" stroke-width="2" stroke-miterlimit="10" stroke-dasharray="2.995,2.995" cx="656.324" cy="110.184" r="21.935"/>
				
					<circle clip-path="url(#SVGID_35_)" fill="none" stroke="#FFFFFF" stroke-width="2" stroke-miterlimit="10" stroke-dasharray="3,3" cx="284.474" cy="416.64" r="42.252"/>
				
					<circle clip-path="url(#SVGID_35_)" fill="none" stroke="#FFFFFF" stroke-width="2" stroke-miterlimit="10" stroke-dasharray="3,3" cx="284.474" cy="416.64" r="33.831"/>
				
					<circle clip-path="url(#SVGID_35_)" fill="none" stroke="#FFFFFF" stroke-width="2" stroke-miterlimit="10" stroke-dasharray="3,3" cx="284.474" cy="416.64" r="21.935"/>
				
					<circle clip-path="url(#SVGID_35_)" fill="none" stroke="#FFFFFF" stroke-width="2" stroke-miterlimit="10" stroke-dasharray="3,3" cx="662.288" cy="381.472" r="42.252"/>
				
					<circle clip-path="url(#SVGID_35_)" fill="none" stroke="#FFFFFF" stroke-width="2" stroke-miterlimit="10" stroke-dasharray="3,3" cx="662.288" cy="381.472" r="33.831"/>
				
					<circle clip-path="url(#SVGID_35_)" fill="none" stroke="#FFFFFF" stroke-width="2" stroke-miterlimit="10" stroke-dasharray="3,3" cx="662.288" cy="381.472" r="21.935"/>
			</g>
		</g>
		<polygon clip-path="url(#SVGID_11_)" fill="#00C8FF" points="633.84,179.862 646.977,130.076 594.917,140.939 609.152,155.174 
			573.419,191.88 548.484,166.945 484.393,231.037 496.138,242.781 548.484,190.434 573.419,215.369 620.884,166.906 		"/>
		<polygon clip-path="url(#SVGID_11_)" fill="#00AEDE" points="643.041,130.897 630.903,176.896 617.948,163.94 570.482,212.403 
			545.549,187.468 493.201,239.815 484.407,231.022 484.393,231.037 496.138,242.781 548.484,190.434 573.419,215.369 
			620.884,166.906 633.84,179.862 646.977,130.076 		"/>
		<polygon clip-path="url(#SVGID_11_)" fill="#3DD5FF" points="627.193,162.937 633.979,139.589 608.354,144.482 		"/>
		<polygon clip-path="url(#SVGID_11_)" fill="#00C8FF" points="694.177,171.247 663.95,177.555 672.215,185.82 651.467,207.132 
			636.99,192.654 599.776,229.867 606.596,236.686 636.99,206.292 651.467,220.77 679.026,192.632 686.549,200.154 		"/>
		<polygon clip-path="url(#SVGID_11_)" fill="#00AEDE" points="690.241,172.068 683.613,197.188 676.09,189.666 648.53,217.804 
			634.053,203.327 603.659,233.721 599.791,229.852 599.776,229.867 606.595,236.686 636.99,206.293 651.467,220.77 
			679.026,192.631 686.549,200.154 694.177,171.247 		"/>
		<polygon clip-path="url(#SVGID_11_)" fill="#3DD5FF" points="672.686,180.209 681.782,189.306 684.964,177.549 		"/>
		<path clip-path="url(#SVGID_11_)" fill="#FFFFFF" d="M398.195,413.319v11.146c0,1.69-1.235,3.2-2.918,3.36
			c-1.931,0.185-3.555-1.328-3.555-3.221v-11.41c-7.538,1.379-13.253,7.977-13.253,15.913v5.471c0,1.83,1.483,3.313,3.313,3.313
			h25.737c1.83,0,3.313-1.483,3.313-3.313v-5.471C410.833,421.389,405.427,414.937,398.195,413.319"/>
		<path clip-path="url(#SVGID_11_)" fill="none" stroke="#FFFFFF" stroke-width="3" stroke-miterlimit="10" d="M483.214,380.537
			c-2.157,12.221-11.305,22.953-23.029,27.021c-2.509,0.869-5.26,1.451-7.805,0.691s-4.732-3.234-4.37-5.865
			c0.327-2.377,2.673-4.141,5.066-4.315c2.394-0.174,4.729,0.973,6.514,2.578c4.641,4.176,5.867,11.366,3.791,17.254
			c-2.077,5.888-7.009,10.472-12.646,13.154c-5.64,2.683-11.951,3.637-18.188,3.924c-9.63,0.443-19.327-0.637-28.623-3.188"/>
		<polygon clip-path="url(#SVGID_11_)" fill="#D9EAF2" points="577.759,377.588 555.154,377.588 552.133,377.588 529.528,377.588 
			503.112,434.755 552.133,434.755 555.154,434.755 604.174,434.755 		"/>
		<path clip-path="url(#SVGID_11_)" fill="#FFFFFF" d="M658.297,382.214H448.991c-5.728,0-10.37-4.643-10.37-10.37V231.051
			c0-5.727,4.643-10.37,10.37-10.37h209.306c5.727,0,10.37,4.643,10.37,10.37v140.793
			C668.667,377.571,664.023,382.214,658.297,382.214"/>
		<rect x="453.699" y="231.269" clip-path="url(#SVGID_11_)" fill="#4923E5" width="199.89" height="140.358"/>
		<path clip-path="url(#SVGID_11_)" fill="#B2C0C7" d="M607.141,438.574H500.147c-3.933,0-7.12-3.188-7.12-7.12
			c0-3.933,3.188-7.12,7.12-7.12h106.993c3.932,0,7.12,3.188,7.12,7.12C614.261,435.386,611.072,438.574,607.141,438.574"/>
		<g opacity="0.22" clip-path="url(#SVGID_11_)">
			<g>
				<defs>
					<rect id="SVGID_36_" x="453.699" y="231.268" width="59.427" height="59.428"/>
				</defs>
				<clipPath id="SVGID_37_">
					<use xlink:href="#SVGID_36_"  overflow="visible"/>
				</clipPath>
				<polygon clip-path="url(#SVGID_37_)" fill="#005CCD" points="487.197,231.269 453.699,264.767 453.699,290.695 513.126,231.269 
									"/>
			</g>
		</g>
		<g opacity="0.22" clip-path="url(#SVGID_11_)">
			<g>
				<defs>
					<rect id="SVGID_38_" x="453.699" y="231.268" width="115.432" height="115.433"/>
				</defs>
				<clipPath id="SVGID_39_">
					<use xlink:href="#SVGID_38_"  overflow="visible"/>
				</clipPath>
				<polygon clip-path="url(#SVGID_39_)" fill="#005CCD" points="555.104,231.269 453.699,332.674 453.699,346.7 569.131,231.269 
									"/>
			</g>
		</g>
		<g opacity="0.22" clip-path="url(#SVGID_11_)">
			<g>
				<defs>
					<rect id="SVGID_40_" x="467.197" y="231.268" width="186.391" height="140.359"/>
				</defs>
				<clipPath id="SVGID_41_">
					<use xlink:href="#SVGID_40_"  overflow="visible"/>
				</clipPath>
				<polygon clip-path="url(#SVGID_41_)" fill="#005CCD" points="653.589,231.269 607.555,231.269 467.197,371.627 524.405,371.627 
					653.589,242.443 				"/>
			</g>
		</g>
		<g opacity="0.22" clip-path="url(#SVGID_11_)">
			<g>
				<defs>
					<rect id="SVGID_42_" x="565.379" y="283.418" width="88.209" height="88.209"/>
				</defs>
				<clipPath id="SVGID_43_">
					<use xlink:href="#SVGID_42_"  overflow="visible"/>
				</clipPath>
				<polygon clip-path="url(#SVGID_43_)" fill="#005CCD" points="653.589,283.418 565.38,371.627 586.612,371.627 653.589,304.65 
									"/>
			</g>
		</g>
		<path clip-path="url(#SVGID_11_)" fill="#EBEBEB" d="M445.427,154.25L445.427,154.25c-1.459,1.459-3.824,1.459-5.283,0
			l-20.916-20.916l5.283-5.283l20.916,20.916C446.886,150.426,446.886,152.792,445.427,154.25"/>
		<path clip-path="url(#SVGID_11_)" fill="#FFFFFF" d="M441.451,152.941l-20.916-20.917l-1.308,1.309l20.916,20.916
			c1.459,1.459,3.824,1.459,5.283,0c0.227-0.227,0.406-0.481,0.563-0.746C444.557,154.353,442.684,154.173,441.451,152.941"/>
		<path clip-path="url(#SVGID_11_)" fill="#FFFFFF" d="M423.471,129.089l20.916,20.917c1.281,1.28,1.436,3.259,0.468,4.71
			c0.202-0.134,0.394-0.289,0.572-0.467c1.459-1.458,1.459-3.824,0-5.283l-20.916-20.916L423.471,129.089z"/>
		<path clip-path="url(#SVGID_11_)" fill="#FFFFFF" d="M428.81,120.926c0-10.102-8.189-18.291-18.291-18.291
			s-18.291,8.189-18.291,18.291s8.189,18.291,18.291,18.291S428.81,131.028,428.81,120.926"/>
		<path clip-path="url(#SVGID_11_)" fill="#EBEBEB" d="M420.931,105.891c3.779,3.351,6.164,8.24,6.164,13.688
			c0,10.103-8.189,18.291-18.291,18.291c-3.87,0-7.456-1.204-10.412-3.255c3.229,2.862,7.474,4.603,12.127,4.603
			c10.102,0,18.291-8.189,18.291-18.291C428.81,114.695,425.69,109.193,420.931,105.891"/>
		<path clip-path="url(#SVGID_11_)" fill="#00C8FF" d="M424.4,120.926c0-7.667-6.216-13.881-13.882-13.881
			c-7.667,0-13.882,6.214-13.882,13.881s6.215,13.882,13.882,13.882C418.185,134.808,424.4,128.593,424.4,120.926"/>
		<path clip-path="url(#SVGID_11_)" fill="#00B4E6" d="M420.412,111.197c1.194,2.05,1.891,4.426,1.891,6.97
			c0,7.667-6.216,13.882-13.882,13.882c-3.875,0-7.376-1.592-9.894-4.152c2.406,4.129,6.868,6.911,11.991,6.911
			c7.665,0,13.882-6.215,13.882-13.882C424.4,117.135,422.876,113.702,420.412,111.197"/>
		<path clip-path="url(#SVGID_11_)" fill="#52D9FF" d="M410.098,119.408c-2.581,3.488-6.503,4.961-8.76,3.291
			s-1.993-5.852,0.589-9.339c2.581-3.488,6.503-4.961,8.76-3.291C412.942,111.74,412.679,115.921,410.098,119.408"/>
		<path clip-path="url(#SVGID_11_)" fill="#EBEBEB" d="M440.76,144.684l-4.773,4.774c-0.431,0.431-1.129,0.431-1.56,0
			c-0.43-0.43-0.43-1.128,0-1.559l4.774-4.774c0.431-0.431,1.129-0.431,1.559,0C441.19,143.556,441.19,144.253,440.76,144.684"/>
		<path clip-path="url(#SVGID_11_)" fill="#F5F5F5" d="M440.76,143.125c-0.069-0.07-0.154-0.11-0.236-0.157
			c0.243,0.422,0.203,0.961-0.157,1.322l-4.774,4.774c-0.36,0.361-0.9,0.401-1.322,0.157c0.048,0.082,0.088,0.167,0.157,0.237
			c0.431,0.431,1.129,0.431,1.56,0l4.773-4.774C441.19,144.253,441.19,143.556,440.76,143.125"/>
		<path clip-path="url(#SVGID_11_)" fill="#DBDBDB" d="M434.835,148.308l4.774-4.774c0.358-0.358,0.894-0.401,1.313-0.163
			c-0.048-0.085-0.09-0.173-0.163-0.246c-0.43-0.43-1.128-0.43-1.559,0l-4.774,4.774c-0.43,0.431-0.43,1.129,0,1.559
			c0.072,0.073,0.161,0.115,0.246,0.163C434.435,149.201,434.478,148.666,434.835,148.308"/>
		<path clip-path="url(#SVGID_11_)" fill="#EBEBEB" d="M443.081,147.005l-4.774,4.774c-0.43,0.431-1.128,0.431-1.559,0
			c-0.431-0.43-0.431-1.128,0-1.559l4.774-4.774c0.431-0.43,1.128-0.43,1.559,0C443.512,145.877,443.512,146.575,443.081,147.005"/>
		<path clip-path="url(#SVGID_11_)" fill="#F5F5F5" d="M443.081,145.446c-0.069-0.07-0.155-0.11-0.236-0.157
			c0.243,0.421,0.203,0.961-0.157,1.322l-4.774,4.774c-0.36,0.36-0.9,0.401-1.322,0.157c0.047,0.082,0.088,0.167,0.157,0.237
			c0.431,0.43,1.129,0.43,1.559,0l4.774-4.774C443.512,146.574,443.512,145.876,443.081,145.446"/>
		<path clip-path="url(#SVGID_11_)" fill="#DBDBDB" d="M437.156,150.628l4.773-4.774c0.359-0.358,0.895-0.4,1.314-0.163
			c-0.048-0.085-0.091-0.173-0.163-0.245c-0.431-0.431-1.128-0.431-1.559,0l-4.774,4.774c-0.431,0.43-0.431,1.128,0,1.559
			c0.072,0.072,0.16,0.115,0.245,0.162C436.756,151.522,436.798,150.986,437.156,150.628"/>
		<path clip-path="url(#SVGID_11_)" fill="#EBEBEB" d="M445.402,149.326l-4.774,4.774c-0.431,0.431-1.128,0.431-1.559,0
			c-0.431-0.43-0.431-1.128,0-1.559l4.774-4.774c0.43-0.43,1.128-0.43,1.559,0C445.833,148.198,445.833,148.895,445.402,149.326"/>
		<path clip-path="url(#SVGID_11_)" fill="#F5F5F5" d="M445.402,147.767c-0.07-0.07-0.155-0.11-0.236-0.157
			c0.243,0.422,0.203,0.962-0.158,1.322l-4.773,4.774c-0.36,0.361-0.9,0.401-1.322,0.158c0.047,0.081,0.087,0.166,0.157,0.236
			c0.431,0.431,1.128,0.431,1.559,0l4.774-4.774C445.833,148.895,445.833,148.198,445.402,147.767"/>
		<path clip-path="url(#SVGID_11_)" fill="#DBDBDB" d="M439.478,152.95l4.774-4.774c0.357-0.358,0.893-0.401,1.313-0.163
			c-0.048-0.085-0.091-0.173-0.163-0.246c-0.431-0.43-1.129-0.43-1.559,0l-4.774,4.775c-0.431,0.43-0.431,1.128,0,1.558
			c0.072,0.073,0.16,0.116,0.245,0.163C439.077,153.843,439.119,153.308,439.478,152.95"/>
		<path clip-path="url(#SVGID_11_)" fill="#FFD900" d="M528.309,146.647l-1.824-1.054c0.065-0.313,0.102-0.635,0.102-0.967
			s-0.036-0.655-0.102-0.967l1.824-1.054c0.254-0.146,0.341-0.47,0.194-0.724l-0.912-1.58c-0.146-0.254-0.472-0.341-0.726-0.195
			l-1.828,1.057c-0.479-0.431-1.045-0.766-1.671-0.969v-2.108c0-0.293-0.238-0.53-0.531-0.53h-1.824c-0.293,0-0.53,0.237-0.53,0.53
			v2.108c-0.627,0.203-1.193,0.538-1.671,0.969l-1.829-1.057c-0.254-0.146-0.578-0.059-0.725,0.195l-0.912,1.58
			c-0.146,0.254-0.06,0.578,0.193,0.724l1.825,1.054c-0.065,0.312-0.102,0.635-0.102,0.967s0.036,0.655,0.102,0.967l-1.825,1.054
			c-0.253,0.146-0.34,0.471-0.193,0.725l0.912,1.58c0.146,0.253,0.471,0.341,0.725,0.194l1.829-1.056
			c0.478,0.431,1.044,0.765,1.671,0.969v2.108c0,0.292,0.237,0.53,0.53,0.53h1.824c0.293,0,0.531-0.238,0.531-0.53v-2.108
			c0.626-0.204,1.192-0.538,1.671-0.969l1.828,1.056c0.254,0.147,0.579,0.059,0.726-0.194l0.912-1.58
			C528.649,147.119,528.563,146.793,528.309,146.647"/>
		<path clip-path="url(#SVGID_11_)" fill="#CA10FD" d="M524.309,144.626c0-1.317-1.067-2.385-2.386-2.385
			c-1.317,0-2.386,1.068-2.386,2.385c0,1.318,1.068,2.386,2.386,2.386C523.241,147.013,524.309,145.944,524.309,144.626"/>
		<path clip-path="url(#SVGID_11_)" fill="#D9EAF2" d="M543.566,113.471l-2.782-1.606c0.101-0.476,0.155-0.969,0.155-1.475
			s-0.055-0.999-0.155-1.475l2.782-1.606c0.387-0.224,0.52-0.719,0.296-1.106l-1.391-2.409c-0.224-0.387-0.719-0.52-1.105-0.296
			l-2.789,1.61c-0.73-0.657-1.593-1.167-2.548-1.477v-3.214c0-0.447-0.362-0.81-0.81-0.81h-2.782c-0.446,0-0.81,0.363-0.81,0.81
			v3.214c-0.956,0.31-1.817,0.82-2.547,1.477l-2.789-1.61c-0.388-0.224-0.882-0.091-1.105,0.296l-1.392,2.409
			c-0.223,0.387-0.091,0.882,0.297,1.106l2.782,1.606c-0.101,0.476-0.155,0.969-0.155,1.475s0.055,0.999,0.155,1.475l-2.782,1.606
			c-0.388,0.224-0.52,0.719-0.297,1.105l1.392,2.41c0.224,0.387,0.718,0.52,1.105,0.296l2.789-1.61
			c0.729,0.656,1.591,1.166,2.547,1.477v3.214c0,0.447,0.363,0.81,0.81,0.81h2.782c0.447,0,0.81-0.363,0.81-0.81v-3.214
			c0.955-0.311,1.817-0.821,2.548-1.477l2.789,1.61c0.387,0.224,0.882,0.091,1.105-0.296l1.391-2.41
			C544.086,114.19,543.953,113.695,543.566,113.471"/>
		<path clip-path="url(#SVGID_11_)" fill="#CA10FD" d="M537.467,110.39c0-2.009-1.629-3.638-3.638-3.638
			c-2.01,0-3.639,1.629-3.639,3.638s1.629,3.638,3.639,3.638C535.838,114.027,537.467,112.398,537.467,110.39"/>
		<path clip-path="url(#SVGID_11_)" fill="#00C8FF" d="M505.976,98.709l-4.486-2.59c0.162-0.768,0.25-1.563,0.25-2.379
			c0-0.816-0.088-1.611-0.25-2.378l4.486-2.59c0.624-0.36,0.838-1.159,0.478-1.783l-2.243-3.884
			c-0.36-0.625-1.158-0.839-1.782-0.479l-4.497,2.597c-1.178-1.059-2.568-1.881-4.109-2.382v-5.183c0-0.72-0.584-1.305-1.305-1.305
			h-4.485c-0.721,0-1.306,0.585-1.306,1.305v5.183c-1.54,0.501-2.932,1.323-4.108,2.382l-4.497-2.597
			c-0.624-0.36-1.422-0.146-1.782,0.479l-2.243,3.884c-0.36,0.624-0.146,1.423,0.478,1.783l4.486,2.59
			c-0.162,0.767-0.25,1.562-0.25,2.378c0,0.816,0.088,1.611,0.25,2.379l-4.486,2.59c-0.624,0.36-0.838,1.158-0.478,1.782
			l2.243,3.885c0.36,0.625,1.158,0.838,1.782,0.478l4.497-2.597c1.177,1.059,2.568,1.882,4.108,2.383v5.182
			c0,0.721,0.585,1.305,1.306,1.305h4.485c0.721,0,1.305-0.584,1.305-1.305v-5.182c1.541-0.501,2.932-1.324,4.109-2.383l4.497,2.597
			c0.624,0.36,1.422,0.147,1.782-0.478l2.243-3.885C506.813,99.868,506.6,99.069,505.976,98.709"/>
		<path clip-path="url(#SVGID_11_)" fill="#CA10FD" d="M496.141,93.741c0-3.24-2.627-5.866-5.867-5.866
			c-3.239,0-5.866,2.626-5.866,5.866c0,3.24,2.627,5.866,5.866,5.866C493.514,99.607,496.141,96.98,496.141,93.741"/>
		<path clip-path="url(#SVGID_11_)" fill="#A9C8D9" d="M477.072,179.172h77.632c3.276,0,5.931,2.656,5.931,5.931v120.886
			c0,3.275-2.654,5.933-5.931,5.933h-77.632c-3.276,0-5.932-2.657-5.932-5.933V185.104
			C471.141,181.829,473.796,179.172,477.072,179.172"/>
		<path clip-path="url(#SVGID_11_)" fill="#D9EAF2" d="M474.115,177.358h77.633c3.275,0,5.93,2.655,5.93,5.931v120.886
			c0,3.275-2.654,5.931-5.931,5.931h-77.632c-3.275,0-5.932-2.655-5.932-5.931V183.289
			C468.184,180.013,470.84,177.358,474.115,177.358"/>
		<rect x="476.549" y="187.157" clip-path="url(#SVGID_11_)" fill="#FFFFFF" width="72.764" height="15.892"/>
		<path clip-path="url(#SVGID_11_)" fill="#F900FF" d="M492.664,195.104c0-3.031-2.458-5.489-5.489-5.489
			c-3.032,0-5.489,2.458-5.489,5.489c0,3.032,2.457,5.489,5.489,5.489C490.206,200.592,492.664,198.136,492.664,195.104"/>
		<path clip-path="url(#SVGID_11_)" fill="#DBDBDB" d="M543.177,192.139h-42.943c-0.553,0-1.001-0.448-1.001-1.001
			c0-0.552,0.448-1,1.001-1h42.943c0.553,0,1.001,0.448,1.001,1C544.178,191.691,543.729,192.139,543.177,192.139"/>
		<path clip-path="url(#SVGID_11_)" fill="#DBDBDB" d="M543.177,196.104h-42.943c-0.553,0-1.001-0.448-1.001-1.001
			c0-0.553,0.448-1,1.001-1h42.943c0.553,0,1.001,0.447,1.001,1C544.178,195.656,543.729,196.104,543.177,196.104"/>
		<path clip-path="url(#SVGID_11_)" fill="#DBDBDB" d="M543.177,200.07h-42.943c-0.553,0-1.001-0.448-1.001-1.001
			c0-0.553,0.448-1.001,1.001-1.001h42.943c0.553,0,1.001,0.448,1.001,1.001C544.178,199.622,543.729,200.07,543.177,200.07"/>
		<rect x="476.549" y="206.994" clip-path="url(#SVGID_11_)" fill="#FFFFFF" width="72.764" height="15.892"/>
		<path clip-path="url(#SVGID_11_)" fill="#BF00FF" d="M492.664,214.94c0-3.032-2.458-5.489-5.489-5.489
			c-3.032,0-5.489,2.457-5.489,5.489c0,3.032,2.457,5.489,5.489,5.489C490.206,220.429,492.664,217.972,492.664,214.94"/>
		<path clip-path="url(#SVGID_11_)" fill="#DBDBDB" d="M543.177,211.976h-42.943c-0.553,0-1.001-0.448-1.001-1.001
			c0-0.553,0.448-1.001,1.001-1.001h42.943c0.553,0,1.001,0.448,1.001,1.001C544.178,211.527,543.729,211.976,543.177,211.976"/>
		<path clip-path="url(#SVGID_11_)" fill="#DBDBDB" d="M543.177,215.94h-42.943c-0.553,0-1.001-0.448-1.001-1
			c0-0.553,0.448-1.001,1.001-1.001h42.943c0.553,0,1.001,0.448,1.001,1.001C544.178,215.492,543.729,215.94,543.177,215.94"/>
		<path clip-path="url(#SVGID_11_)" fill="#DBDBDB" d="M543.177,219.906h-42.943c-0.553,0-1.001-0.448-1.001-1.001s0.448-1,1.001-1
			h42.943c0.553,0,1.001,0.447,1.001,1S543.729,219.906,543.177,219.906"/>
		<rect x="476.549" y="226.83" clip-path="url(#SVGID_11_)" fill="#FFFFFF" width="72.764" height="15.892"/>
		<path clip-path="url(#SVGID_11_)" fill="#9600FF" d="M492.664,234.776c0-3.031-2.458-5.489-5.489-5.489
			c-3.032,0-5.489,2.458-5.489,5.489c0,3.032,2.457,5.489,5.489,5.489C490.206,240.265,492.664,237.808,492.664,234.776"/>
		<path clip-path="url(#SVGID_11_)" fill="#DBDBDB" d="M543.177,231.812h-42.943c-0.553,0-1.001-0.448-1.001-1
			c0-0.553,0.448-1.001,1.001-1.001h42.943c0.553,0,1.001,0.448,1.001,1.001C544.178,231.363,543.729,231.812,543.177,231.812"/>
		<path clip-path="url(#SVGID_11_)" fill="#DBDBDB" d="M543.177,235.777h-42.943c-0.553,0-1.001-0.448-1.001-1.001s0.448-1,1.001-1
			h42.943c0.553,0,1.001,0.447,1.001,1S543.729,235.777,543.177,235.777"/>
		<path clip-path="url(#SVGID_11_)" fill="#DBDBDB" d="M543.177,239.742h-42.943c-0.553,0-1.001-0.448-1.001-1.001
			c0-0.553,0.448-1.001,1.001-1.001h42.943c0.553,0,1.001,0.448,1.001,1.001C544.178,239.294,543.729,239.742,543.177,239.742"/>
		<rect x="476.549" y="246.667" clip-path="url(#SVGID_11_)" fill="#FFFFFF" width="72.764" height="15.891"/>
		<path clip-path="url(#SVGID_11_)" fill="#B8E051" d="M492.664,254.612c0-3.031-2.458-5.489-5.489-5.489
			c-3.032,0-5.489,2.458-5.489,5.489s2.457,5.489,5.489,5.489C490.206,260.102,492.664,257.644,492.664,254.612"/>
		<path clip-path="url(#SVGID_11_)" fill="#DBDBDB" d="M543.177,251.647h-42.943c-0.553,0-1.001-0.447-1.001-1
			s0.448-1.001,1.001-1.001h42.943c0.553,0,1.001,0.448,1.001,1.001S543.729,251.647,543.177,251.647"/>
		<path clip-path="url(#SVGID_11_)" fill="#DBDBDB" d="M543.177,255.613h-42.943c-0.553,0-1.001-0.448-1.001-1.001
			s0.448-1.001,1.001-1.001h42.943c0.553,0,1.001,0.448,1.001,1.001S543.729,255.613,543.177,255.613"/>
		<path clip-path="url(#SVGID_11_)" fill="#DBDBDB" d="M543.177,259.578h-42.943c-0.553,0-1.001-0.448-1.001-1.001
			s0.448-1.001,1.001-1.001h42.943c0.553,0,1.001,0.448,1.001,1.001S543.729,259.578,543.177,259.578"/>
		<rect x="476.549" y="266.503" clip-path="url(#SVGID_11_)" fill="#FFFFFF" width="72.764" height="15.892"/>
		<path clip-path="url(#SVGID_11_)" fill="#FFD900" d="M492.664,274.448c0-3.031-2.458-5.489-5.489-5.489
			c-3.032,0-5.489,2.458-5.489,5.489s2.457,5.489,5.489,5.489C490.206,279.938,492.664,277.479,492.664,274.448"/>
		<path clip-path="url(#SVGID_11_)" fill="#DBDBDB" d="M543.177,271.484h-42.943c-0.553,0-1.001-0.448-1.001-1.001
			s0.448-1.001,1.001-1.001h42.943c0.553,0,1.001,0.448,1.001,1.001S543.729,271.484,543.177,271.484"/>
		<path clip-path="url(#SVGID_11_)" fill="#DBDBDB" d="M543.177,275.449h-42.943c-0.553,0-1.001-0.448-1.001-1.001
			s0.448-1.001,1.001-1.001h42.943c0.553,0,1.001,0.448,1.001,1.001S543.729,275.449,543.177,275.449"/>
		<path clip-path="url(#SVGID_11_)" fill="#DBDBDB" d="M543.177,279.414h-42.943c-0.553,0-1.001-0.448-1.001-1
			c0-0.554,0.448-1.001,1.001-1.001h42.943c0.553,0,1.001,0.447,1.001,1.001C544.178,278.966,543.729,279.414,543.177,279.414"/>
		<rect x="476.549" y="286.338" clip-path="url(#SVGID_11_)" fill="#FFFFFF" width="72.764" height="15.893"/>
		<path clip-path="url(#SVGID_11_)" fill="#FF4D00" d="M492.664,294.284c0-3.031-2.458-5.488-5.489-5.488
			c-3.032,0-5.489,2.457-5.489,5.488c0,3.032,2.457,5.489,5.489,5.489C490.206,299.773,492.664,297.316,492.664,294.284"/>
		<path clip-path="url(#SVGID_11_)" fill="#DBDBDB" d="M543.177,291.32h-42.943c-0.553,0-1.001-0.448-1.001-1.001
			s0.448-1.001,1.001-1.001h42.943c0.553,0,1.001,0.448,1.001,1.001S543.729,291.32,543.177,291.32"/>
		<path clip-path="url(#SVGID_11_)" fill="#DBDBDB" d="M543.177,295.285h-42.943c-0.553,0-1.001-0.448-1.001-1.001s0.448-1,1.001-1
			h42.943c0.553,0,1.001,0.447,1.001,1S543.729,295.285,543.177,295.285"/>
		<path clip-path="url(#SVGID_11_)" fill="#DBDBDB" d="M543.177,299.251h-42.943c-0.553,0-1.001-0.448-1.001-1.001
			s0.448-1.001,1.001-1.001h42.943c0.553,0,1.001,0.448,1.001,1.001S543.729,299.251,543.177,299.251"/>
		<path clip-path="url(#SVGID_11_)" fill="#FFFFFF" d="M436.408,190.697c0-11.881-13.126-21.513-29.314-21.513
			c-16.19,0-29.314,9.632-29.314,21.513s13.124,21.513,29.314,21.513c0.331,0,0.64-0.064,0.97-0.072l12.899,10.789l-1.039-12.974
			C429.652,206.453,436.408,199.184,436.408,190.697"/>
		<path clip-path="url(#SVGID_11_)" fill="#BF00FF" d="M394.753,190.681c0-2.349-1.904-4.252-4.253-4.252
			c-2.35,0-4.253,1.903-4.253,4.252s1.903,4.253,4.253,4.253C392.849,194.934,394.753,193.03,394.753,190.681"/>
		<path clip-path="url(#SVGID_11_)" fill="#B8E051" d="M410.708,190.681c0-2.349-1.904-4.252-4.253-4.252s-4.252,1.903-4.252,4.252
			s1.903,4.253,4.252,4.253S410.708,193.03,410.708,190.681"/>
		<path clip-path="url(#SVGID_11_)" fill="#FFD900" d="M426.664,190.681c0-2.349-1.904-4.252-4.253-4.252s-4.253,1.903-4.253,4.252
			s1.904,4.253,4.253,4.253S426.664,193.03,426.664,190.681"/>
		<path clip-path="url(#SVGID_11_)" fill="#FFBC00" d="M722.679,313.816c2.688-5.993,0.01-13.03-5.982-15.719
			c-5.993-2.688-13.03-0.01-15.719,5.982c-2.688,5.993-1.386,32.143-1.386,32.143S719.99,319.81,722.679,313.816"/>
		<path clip-path="url(#SVGID_11_)" fill="#F311FD" d="M717.18,311.35c1.326-2.956,0.005-6.428-2.95-7.753
			c-2.956-1.326-6.428-0.006-7.754,2.95s-0.005,6.428,2.951,7.754S715.854,314.306,717.18,311.35"/>
		<rect x="543.48" y="329.14" clip-path="url(#SVGID_11_)" fill="#FFBC00" width="7.469" height="26.882"/>
		<rect x="558.396" y="329.14" clip-path="url(#SVGID_11_)" fill="#FFBC00" width="7.469" height="26.882"/>
		<rect x="572.646" y="320.734" clip-path="url(#SVGID_11_)" fill="#FFBC00" width="7.47" height="35.285"/>
		<rect x="586.841" y="299.251" clip-path="url(#SVGID_11_)" fill="#FFBC00" width="7.469" height="56.771"/>
		<rect x="602.218" y="290.319" clip-path="url(#SVGID_11_)" fill="#FFBC00" width="7.47" height="65.7"/>
		<rect x="615.878" y="303.546" clip-path="url(#SVGID_11_)" fill="#FFBC00" width="7.469" height="52.476"/>
		<rect x="629.479" y="323.17" clip-path="url(#SVGID_11_)" fill="#FFBC00" width="7.47" height="32.852"/>
		<path clip-path="url(#SVGID_11_)" fill="#00C8FF" d="M531.701,352.078h106.395c2.041,0,3.696,1.654,3.696,3.696
			c0,2.041-1.655,3.695-3.696,3.695H531.701c-2.041,0-3.696-1.654-3.696-3.695C528.005,353.732,529.66,352.078,531.701,352.078"/>
		<path clip-path="url(#SVGID_11_)" fill="#FFFFFF" d="M624.188,267.37h-18.227c-1.793,0-3.245-1.452-3.245-3.244v-11.463
			c0-1.792,1.452-3.244,3.245-3.244h18.227c1.792,0,3.245,1.452,3.245,3.244v11.463C627.433,265.918,625.979,267.37,624.188,267.37"
			/>
		<polyline clip-path="url(#SVGID_11_)" fill="none" stroke="#005CCD" stroke-width="3.137" stroke-miterlimit="10" points="
			604.539,254.668 613.383,261.213 623.981,253.575 		"/>
		
			<rect x="479.003" y="336.192" clip-path="url(#SVGID_11_)" fill="none" stroke="#FFFFFF" stroke-width="1.18" stroke-linecap="round" stroke-linejoin="round" stroke-miterlimit="10" width="17.909" height="17.908"/>
		
			<polyline clip-path="url(#SVGID_11_)" fill="none" stroke="#B8E051" stroke-width="3" stroke-linecap="round" stroke-linejoin="round" stroke-miterlimit="10" points="
			480.34,345.146 486.254,351.857 507.051,331.061 		"/>
		<g opacity="0.46" clip-path="url(#SVGID_11_)">
			<g>
				<defs>
					<rect id="SVGID_44_" x="143.468" y="66.042" width="583.741" height="426.238"/>
				</defs>
				<clipPath id="SVGID_45_">
					<use xlink:href="#SVGID_44_"  overflow="visible"/>
				</clipPath>
				
					<circle clip-path="url(#SVGID_45_)" fill="none" stroke="#FFFFFF" stroke-width="1.18" stroke-linecap="round" stroke-linejoin="round" stroke-miterlimit="10" cx="506.29" cy="128.209" r="2.896"/>
				
					<circle clip-path="url(#SVGID_45_)" fill="none" stroke="#FFFFFF" stroke-width="1.18" stroke-linecap="round" stroke-linejoin="round" stroke-miterlimit="10" cx="723.724" cy="148.045" r="2.896"/>
				
					<circle clip-path="url(#SVGID_45_)" fill="none" stroke="#FFFFFF" stroke-width="1.18" stroke-linecap="round" stroke-linejoin="round" stroke-miterlimit="10" cx="719.736" cy="339.22" r="2.896"/>
				
					<circle clip-path="url(#SVGID_45_)" fill="none" stroke="#FFFFFF" stroke-width="1.18" stroke-linecap="round" stroke-linejoin="round" stroke-miterlimit="10" cx="719.736" cy="405.828" r="2.896"/>
				
					<circle clip-path="url(#SVGID_45_)" fill="none" stroke="#FFFFFF" stroke-width="1.18" stroke-linecap="round" stroke-linejoin="round" stroke-miterlimit="10" cx="487.751" cy="431.496" r="2.896"/>
				
					<circle clip-path="url(#SVGID_45_)" fill="none" stroke="#FFFFFF" stroke-width="1.18" stroke-linecap="round" stroke-linejoin="round" stroke-miterlimit="10" cx="636.08" cy="475.695" r="2.896"/>
				
					<circle clip-path="url(#SVGID_45_)" fill="none" stroke="#FFFFFF" stroke-width="1.18" stroke-linecap="round" stroke-linejoin="round" stroke-miterlimit="10" cx="491.974" cy="478.749" r="2.896"/>
				
					<circle clip-path="url(#SVGID_45_)" fill="none" stroke="#FFFFFF" stroke-width="1.18" stroke-linecap="round" stroke-linejoin="round" stroke-miterlimit="10" cx="402.203" cy="446.818" r="2.896"/>
				
					<circle clip-path="url(#SVGID_45_)" fill="none" stroke="#FFFFFF" stroke-width="1.18" stroke-linecap="round" stroke-linejoin="round" stroke-miterlimit="10" cx="396.189" cy="358.247" r="2.896"/>
				
					<circle clip-path="url(#SVGID_45_)" fill="none" stroke="#FFFFFF" stroke-width="1.18" stroke-linecap="round" stroke-linejoin="round" stroke-miterlimit="10" cx="377.779" cy="229.957" r="2.895"/>
				
					<circle clip-path="url(#SVGID_45_)" fill="none" stroke="#FFFFFF" stroke-width="1.18" stroke-linecap="round" stroke-linejoin="round" stroke-miterlimit="10" cx="340.821" cy="232.852" r="2.896"/>
				
					<circle clip-path="url(#SVGID_45_)" fill="none" stroke="#FFFFFF" stroke-width="1.18" stroke-linecap="round" stroke-linejoin="round" stroke-miterlimit="10" cx="237.797" cy="455.292" r="2.896"/>
				
					<circle clip-path="url(#SVGID_45_)" fill="none" stroke="#FFFFFF" stroke-width="1.18" stroke-linecap="round" stroke-linejoin="round" stroke-miterlimit="10" cx="174.714" cy="455.292" r="2.896"/>
				
					<circle clip-path="url(#SVGID_45_)" fill="none" stroke="#FFFFFF" stroke-width="1.18" stroke-linecap="round" stroke-linejoin="round" stroke-miterlimit="10" cx="717.695" cy="112.32" r="2.896"/>
				
					<circle clip-path="url(#SVGID_45_)" fill="none" stroke="#FFFFFF" stroke-width="1.18" stroke-linecap="round" stroke-linejoin="round" stroke-miterlimit="10" cx="468.814" cy="131.142" r="5.662"/>
				
					<circle clip-path="url(#SVGID_45_)" fill="none" stroke="#FFFFFF" stroke-width="1.18" stroke-linecap="round" stroke-linejoin="round" stroke-miterlimit="10" cx="696.118" cy="240.826" r="5.662"/>
				
					<circle clip-path="url(#SVGID_45_)" fill="none" stroke="#FFFFFF" stroke-width="1.18" stroke-linecap="round" stroke-linejoin="round" stroke-miterlimit="10" cx="636.08" cy="437.158" r="5.662"/>
				
					<circle clip-path="url(#SVGID_45_)" fill="none" stroke="#FFFFFF" stroke-width="1.18" stroke-linecap="round" stroke-linejoin="round" stroke-miterlimit="10" cx="380.005" cy="403.701" r="5.662"/>
				
					<circle clip-path="url(#SVGID_45_)" fill="none" stroke="#FFFFFF" stroke-width="1.18" stroke-linecap="round" stroke-linejoin="round" stroke-miterlimit="10" cx="149.72" cy="475.001" r="5.662"/>
				
					<circle clip-path="url(#SVGID_45_)" fill="none" stroke="#FFFFFF" stroke-width="1.18" stroke-linecap="round" stroke-linejoin="round" stroke-miterlimit="10" cx="354.409" cy="198.934" r="5.662"/>
				<path clip-path="url(#SVGID_45_)" fill="#FFFFFF" d="M586.582,84.012L586.582,84.012c3.143,0,5.688,2.547,5.688,5.689v1.211
					h-11.378v-1.211C580.893,86.559,583.439,84.012,586.582,84.012"/>
				<path clip-path="url(#SVGID_45_)" fill="#FFFFFF" d="M589.284,80.551c0-1.689-1.369-3.058-3.058-3.058s-3.058,1.369-3.058,3.058
					s1.369,3.058,3.058,3.058S589.284,82.24,589.284,80.551"/>
				<path clip-path="url(#SVGID_45_)" fill="#FFFFFF" d="M406.597,412.538L406.597,412.538c3.143,0,5.689,2.547,5.689,5.689v1.211
					h-11.379v-1.211C400.907,415.085,403.455,412.538,406.597,412.538"/>
				<path clip-path="url(#SVGID_45_)" fill="#FFFFFF" d="M409.299,409.077c0-1.689-1.368-3.059-3.058-3.059
					c-1.688,0-3.058,1.369-3.058,3.059c0,1.688,1.369,3.058,3.058,3.058C407.931,412.135,409.299,410.765,409.299,409.077"/>
				<path clip-path="url(#SVGID_45_)" fill="#FFFFFF" d="M199.786,450.279L199.786,450.279c3.142,0,5.689,2.547,5.689,5.689v1.211
					h-11.378v-1.211C194.097,452.826,196.644,450.279,199.786,450.279"/>
				<path clip-path="url(#SVGID_45_)" fill="#FFFFFF" d="M202.488,446.818c0-1.688-1.369-3.059-3.058-3.059s-3.058,1.37-3.058,3.059
					s1.369,3.058,3.058,3.058S202.488,448.507,202.488,446.818"/>
				<path clip-path="url(#SVGID_45_)" fill="#FFFFFF" d="M720.092,265.456L720.092,265.456c3.142,0,5.689,2.547,5.689,5.689v1.211
					h-11.379v-1.211C714.402,268.003,716.949,265.456,720.092,265.456"/>
				<path clip-path="url(#SVGID_45_)" fill="#FFFFFF" d="M722.794,261.995c0-1.689-1.369-3.059-3.058-3.059
					c-1.689,0-3.059,1.369-3.059,3.059c0,1.688,1.369,3.058,3.059,3.058C721.425,265.053,722.794,263.684,722.794,261.995"/>
				
					<polyline clip-path="url(#SVGID_45_)" fill="none" stroke="#FFFFFF" stroke-width="1.479" stroke-linecap="round" stroke-linejoin="round" stroke-miterlimit="10" points="
					592.455,133.974 588.059,133.974 583.544,147.073 570.008,147.073 564.89,136.707 581.286,136.707 579.267,143.717 
					573.326,143.36 572.018,139.813 576.296,139.813 				"/>
				<path clip-path="url(#SVGID_45_)" fill="#FFFFFF" d="M585.531,151.632c0-1.338-1.085-2.423-2.423-2.423
					s-2.423,1.085-2.423,2.423s1.085,2.423,2.423,2.423S585.531,152.97,585.531,151.632"/>
				<path clip-path="url(#SVGID_45_)" fill="#FFFFFF" d="M571.353,151.632c0-1.338-1.085-2.423-2.423-2.423
					s-2.423,1.085-2.423,2.423s1.085,2.423,2.423,2.423S571.353,152.97,571.353,151.632"/>
				
					<polyline clip-path="url(#SVGID_45_)" fill="none" stroke="#FFFFFF" stroke-width="1.479" stroke-linecap="round" stroke-linejoin="round" stroke-miterlimit="10" points="
					679.54,437.892 675.144,437.892 670.628,450.99 657.093,450.99 651.975,440.624 668.371,440.624 666.351,447.635 
					660.41,447.278 659.103,443.73 663.381,443.73 				"/>
				<path clip-path="url(#SVGID_45_)" fill="#FFFFFF" d="M672.615,455.55c0-1.338-1.085-2.423-2.423-2.423s-2.423,1.085-2.423,2.423
					s1.085,2.423,2.423,2.423S672.615,456.888,672.615,455.55"/>
				<path clip-path="url(#SVGID_45_)" fill="#FFFFFF" d="M658.437,455.55c0-1.338-1.085-2.423-2.423-2.423s-2.423,1.085-2.423,2.423
					s1.085,2.423,2.423,2.423S658.437,456.888,658.437,455.55"/>
				
					<polyline clip-path="url(#SVGID_45_)" fill="none" stroke="#FFFFFF" stroke-width="1.479" stroke-linecap="round" stroke-linejoin="round" stroke-miterlimit="10" points="
					348.026,144.481 343.63,144.481 339.115,157.58 325.58,157.58 320.461,147.213 336.858,147.213 334.838,154.224 
					328.897,153.867 327.59,150.32 331.867,150.32 				"/>
				<path clip-path="url(#SVGID_45_)" fill="#FFFFFF" d="M341.102,162.139c0-1.338-1.084-2.423-2.422-2.423
					s-2.423,1.085-2.423,2.423s1.085,2.423,2.423,2.423S341.102,163.477,341.102,162.139"/>
				<path clip-path="url(#SVGID_45_)" fill="#FFFFFF" d="M326.923,162.139c0-1.338-1.084-2.423-2.422-2.423
					c-1.339,0-2.423,1.085-2.423,2.423s1.084,2.423,2.423,2.423C325.839,164.562,326.923,163.477,326.923,162.139"/>
				
					<polyline clip-path="url(#SVGID_45_)" fill="none" stroke="#FFFFFF" stroke-width="1.479" stroke-linecap="round" stroke-linejoin="round" stroke-miterlimit="10" points="
					256.005,472.199 251.609,472.199 247.094,485.299 233.558,485.299 228.44,474.933 244.837,474.933 242.817,481.942 
					236.876,481.586 235.568,478.039 239.846,478.039 				"/>
				<path clip-path="url(#SVGID_45_)" fill="#FFFFFF" d="M249.081,489.857c0-1.338-1.085-2.422-2.423-2.422
					s-2.423,1.084-2.423,2.422c0,1.339,1.085,2.423,2.423,2.423S249.081,491.196,249.081,489.857"/>
				<path clip-path="url(#SVGID_45_)" fill="#FFFFFF" d="M234.902,489.857c0-1.338-1.084-2.422-2.422-2.422
					s-2.423,1.084-2.423,2.422c0,1.339,1.085,2.423,2.423,2.423S234.902,491.196,234.902,489.857"/>
				<path clip-path="url(#SVGID_45_)" fill="#FFFFFF" d="M483.512,153.363c0-1.481-1.2-2.681-2.681-2.681s-2.681,1.2-2.681,2.681
					c0,1.48,1.2,2.681,2.681,2.681S483.512,154.843,483.512,153.363"/>
				<path clip-path="url(#SVGID_45_)" fill="#FFFFFF" d="M196.777,475.001c0-1.479-1.2-2.681-2.681-2.681s-2.681,1.201-2.681,2.681
					c0,1.48,1.2,2.681,2.681,2.681S196.777,476.481,196.777,475.001"/>
				<path clip-path="url(#SVGID_45_)" fill="#FFFFFF" d="M305.903,485.299c0-1.481-1.2-2.682-2.681-2.682s-2.681,1.2-2.681,2.682
					c0,1.479,1.2,2.681,2.681,2.681S305.903,486.778,305.903,485.299"/>
				<path clip-path="url(#SVGID_45_)" fill="#FFFFFF" d="M712.867,220.833c0-1.481-1.2-2.681-2.681-2.681s-2.681,1.2-2.681,2.681
					c0,1.48,1.2,2.681,2.681,2.681S712.867,222.313,712.867,220.833"/>
				<path clip-path="url(#SVGID_45_)" fill="#FFFFFF" d="M710.187,141.933c0-1.48-1.2-2.681-2.681-2.681
					c-1.481,0-2.682,1.201-2.682,2.681c0,1.481,1.2,2.681,2.682,2.681C708.986,144.614,710.187,143.414,710.187,141.933"/>
				<path clip-path="url(#SVGID_45_)" fill="#FFFFFF" d="M334.966,68.723c0-1.48-1.2-2.681-2.681-2.681s-2.681,1.201-2.681,2.681
					c0,1.481,1.2,2.681,2.681,2.681S334.966,70.204,334.966,68.723"/>
				<path clip-path="url(#SVGID_45_)" fill="#FFFFFF" d="M332.286,124.747c0-1.481-1.201-2.681-2.681-2.681
					c-1.481,0-2.681,1.2-2.681,2.681c0,1.48,1.2,2.681,2.681,2.681C331.084,127.428,332.286,126.227,332.286,124.747"/>
				<path clip-path="url(#SVGID_45_)" fill="#FFFFFF" d="M714.181,433.454c0-1.48-1.2-2.681-2.681-2.681s-2.681,1.2-2.681,2.681
					s1.2,2.682,2.681,2.682S714.181,434.935,714.181,433.454"/>
				<path clip-path="url(#SVGID_45_)" fill="#FFFFFF" d="M615.206,423.009c0-1.48-1.2-2.681-2.681-2.681
					c-1.481,0-2.682,1.2-2.682,2.681s1.2,2.681,2.682,2.681C614.006,425.689,615.206,424.489,615.206,423.009"/>
				<path clip-path="url(#SVGID_45_)" fill="#FFFFFF" d="M475.188,457.973c0-1.479-1.2-2.681-2.681-2.681
					c-1.481,0-2.682,1.201-2.682,2.681c0,1.48,1.2,2.681,2.682,2.681C473.987,460.653,475.188,459.453,475.188,457.973"/>
				<path clip-path="url(#SVGID_45_)" fill="#FFFFFF" d="M550.276,71.404c0-1.481-1.2-2.681-2.681-2.681s-2.681,1.2-2.681,2.681
					c0,1.48,1.2,2.681,2.681,2.681S550.276,72.884,550.276,71.404"/>
			</g>
		</g>
	</g>
	<g clip-path="url(#SVGID_2_)">
		<defs>
			<rect id="SVGID_46_" width="750" height="500"/>
		</defs>
		<clipPath id="SVGID_47_">
			<use xlink:href="#SVGID_46_"  overflow="visible"/>
		</clipPath>
		<path clip-path="url(#SVGID_47_)" fill="#FFFFFF" d="M385.104,473.411c-0.432,0.442-0.803,0.931-1.108,1.453l-0.465-0.241
			c-0.066-0.298-0.349-0.503-0.658-0.467c-0.332,0.039-0.568,0.339-0.529,0.67s0.339,0.568,0.67,0.529
			c0.065-0.008,0.127-0.026,0.184-0.053l0.451,0.234c-0.251,0.554-0.433,1.139-0.539,1.744l0.746,0.132
			c0.229-1.307,0.85-2.507,1.792-3.473L385.104,473.411z"/>
		<path clip-path="url(#SVGID_47_)" fill="#FFFFFF" d="M390.592,471.108c-0.171,0-0.341,0.007-0.51,0.018l-0.073-0.626
			c0.187-0.149,0.296-0.39,0.266-0.645c-0.047-0.394-0.402-0.675-0.796-0.628c-0.393,0.046-0.674,0.402-0.628,0.795
			c0.03,0.254,0.189,0.461,0.405,0.563l0.073,0.624c-0.714,0.116-1.403,0.332-2.06,0.646l0.327,0.684
			c0.933-0.446,1.941-0.673,2.995-0.673c0.496,0,0.993,0.053,1.475,0.157l0.161-0.741
			C391.692,471.168,391.143,471.108,390.592,471.108"/>
		<path clip-path="url(#SVGID_47_)" fill="#FFFFFF" d="M397.194,473.656c0.331-0.041,0.566-0.342,0.525-0.673
			c-0.041-0.33-0.342-0.565-0.672-0.525c-0.31,0.038-0.536,0.303-0.53,0.609l-0.416,0.362c-0.418-0.43-0.89-0.813-1.408-1.139
			l-0.403,0.641c1.133,0.715,2.021,1.727,2.563,2.926l0.69-0.313c-0.251-0.555-0.567-1.072-0.942-1.545l0.402-0.352
			C397.064,473.661,397.129,473.664,397.194,473.656"/>
		<path clip-path="url(#SVGID_47_)" fill="#FFFFFF" d="M390.044,481.317c-0.386,0.023-0.774,0.034-1.157,0.034
			c-0.88,0-1.732-0.061-2.479-0.179c-0.39-0.063-0.846-0.155-1.27-0.292c1.046,1.861,3.069,3.125,5.388,3.125
			c2.855,0,5.263-1.916,5.95-4.504c-0.682,0.449-1.506,0.825-2.459,1.123C392.839,480.992,391.464,481.231,390.044,481.317"/>
		<path clip-path="url(#SVGID_47_)" fill="#FFFFFF" d="M390.592,472.625c-3.353,0-6.08,2.666-6.08,5.943
			c0,0.426,0.047,0.85,0.137,1.262c0.675,0.482,2.706,0.89,5.349,0.73c2.879-0.173,5.297-0.957,6.672-2.158
			c-0.005-0.195-0.021-0.391-0.045-0.582C396.243,474.858,393.649,472.625,390.592,472.625 M388.433,479.14
			c-1.021,0-1.85-0.83-1.85-1.85s0.829-1.85,1.85-1.85c1.02,0,1.85,0.83,1.85,1.85S389.452,479.14,388.433,479.14 M393.17,478.231
			c-0.75,0-1.36-0.61-1.36-1.36s0.61-1.36,1.36-1.36s1.36,0.61,1.36,1.36S393.92,478.231,393.17,478.231"/>
		<path clip-path="url(#SVGID_47_)" fill="#FFFFFF" d="M406.595,474.492c-0.294-0.116-0.805-0.309-1.382-0.237
			c-0.551,0.068-0.844,0.342-0.844,1.007v0.865h2.228v1.718h-2.228v5.454h-1.932v-5.454h-1.34v-1.718h1.34v-0.888
			c0-1.68,0.896-2.783,2.568-2.783c0.643,0,1.157,0.122,1.59,0.309L406.595,474.492z"/>
		<path clip-path="url(#SVGID_47_)" fill="#FFFFFF" d="M411.298,477.824c-0.177-0.03-0.357-0.046-0.526-0.046
			c-0.896,0-1.51,0.547-1.51,1.613v3.907h-1.932v-7.172h1.872v0.785c0.452-0.674,1.141-0.978,2.021-0.978
			c0.414,0,0.848,0.128,1.095,0.337L411.298,477.824z"/>
		<path clip-path="url(#SVGID_47_)" fill="#FFFFFF" d="M418.965,479.702c0,0.222-0.015,0.488-0.037,0.651h-5.084
			c0.207,1.036,0.933,1.487,1.843,1.487c0.621,0,1.295-0.251,1.813-0.688l1.132,1.243c-0.814,0.747-1.851,1.088-3.057,1.088
			c-2.198,0-3.723-1.495-3.723-3.753s1.48-3.797,3.626-3.797C417.544,475.935,418.958,477.467,418.965,479.702 M413.851,479.036
			h3.175c-0.177-0.918-0.732-1.436-1.562-1.436C414.554,477.601,414.021,478.148,413.851,479.036"/>
		<path clip-path="url(#SVGID_47_)" fill="#FFFFFF" d="M426.618,479.702c0,0.222-0.015,0.488-0.037,0.651h-5.084
			c0.207,1.036,0.932,1.487,1.843,1.487c0.621,0,1.295-0.251,1.813-0.688l1.132,1.243c-0.814,0.747-1.851,1.088-3.057,1.088
			c-2.198,0-3.723-1.495-3.723-3.753s1.48-3.797,3.626-3.797C425.197,475.935,426.611,477.467,426.618,479.702 M421.504,479.036
			h3.175c-0.177-0.918-0.732-1.436-1.562-1.436C422.207,477.601,421.674,478.148,421.504,479.036"/>
		<path clip-path="url(#SVGID_47_)" fill="#FFFFFF" d="M434.964,479.71c0,2.153-1.495,3.774-3.471,3.774
			c-0.963,0-1.645-0.378-2.109-0.933v3.708h-1.925v-10.133h1.888v0.792c0.466-0.584,1.154-0.984,2.139-0.984
			C433.469,475.935,434.964,477.556,434.964,479.71 M429.287,479.71c0,1.132,0.747,1.976,1.843,1.976
			c1.14,0,1.851-0.881,1.851-1.976c0-1.096-0.711-1.977-1.851-1.977C430.034,477.733,429.287,478.577,429.287,479.71"/>
		<path clip-path="url(#SVGID_47_)" fill="#FFFFFF" d="M438.067,473.781c0,0.695-0.54,1.229-1.235,1.229
			c-0.696,0-1.229-0.533-1.229-1.229c0-0.696,0.533-1.243,1.229-1.243C437.527,472.538,438.067,473.085,438.067,473.781
			 M437.809,483.299h-1.932v-7.172h1.932V483.299z"/>
		<polygon clip-path="url(#SVGID_47_)" fill="#FFFFFF" points="441.032,478.681 443.733,476.127 446.103,476.127 442.623,479.502 
			446.124,483.299 443.748,483.299 441.032,480.398 441.032,483.299 439.101,483.299 439.101,472.642 441.032,472.642 		"/>
		<path clip-path="url(#SVGID_47_)" fill="#FFFFFF" d="M309.413,483.234v-1.055c-0.527,0.718-1.392,1.23-2.388,1.23
			c-1.845,0-3.149-1.407-3.149-3.706c0-2.256,1.289-3.721,3.149-3.721c0.952,0,1.817,0.469,2.388,1.245v-3.765h1.099v9.771H309.413z
			 M309.413,481.315v-3.208c-0.396-0.615-1.245-1.143-2.124-1.143c-1.421,0-2.271,1.172-2.271,2.739s0.85,2.725,2.271,2.725
			C308.167,482.429,309.017,481.931,309.413,481.315"/>
		<path clip-path="url(#SVGID_47_)" fill="#FFFFFF" d="M311.932,479.689c0-2.051,1.464-3.706,3.486-3.706
			c2.138,0,3.398,1.67,3.398,3.794v0.278h-5.727c0.087,1.333,1.025,2.446,2.548,2.446c0.806,0,1.626-0.322,2.183-0.894l0.527,0.718
			c-0.703,0.703-1.655,1.084-2.812,1.084C313.44,483.41,311.932,481.901,311.932,479.689 M315.403,476.892
			c-1.509,0-2.256,1.274-2.314,2.358h4.643C317.717,478.195,317.014,476.892,315.403,476.892"/>
		<path clip-path="url(#SVGID_47_)" fill="#FFFFFF" d="M319.607,482.297l0.571-0.791c0.469,0.542,1.363,1.011,2.329,1.011
			c1.084,0,1.67-0.513,1.67-1.216c0-1.714-4.38-0.659-4.38-3.281c0-1.099,0.953-2.035,2.637-2.035c1.201,0,2.051,0.453,2.622,1.024
			l-0.513,0.762c-0.424-0.513-1.201-0.894-2.109-0.894c-0.967,0-1.567,0.483-1.567,1.113c0,1.553,4.379,0.527,4.379,3.281
			c0,1.187-0.952,2.139-2.783,2.139C321.306,483.41,320.325,483.059,319.607,482.297"/>
		<path clip-path="url(#SVGID_47_)" fill="#FFFFFF" d="M326.477,474.416c0-0.41,0.337-0.746,0.732-0.746
			c0.411,0,0.747,0.336,0.747,0.746s-0.336,0.732-0.747,0.732C326.814,475.148,326.477,474.826,326.477,474.416 M326.667,476.159
			h1.099v7.075h-1.099V476.159z"/>
		<path clip-path="url(#SVGID_47_)" fill="#FFFFFF" d="M329.583,485.051l0.556-0.82c0.586,0.703,1.289,0.967,2.3,0.967
			c1.172,0,2.27-0.571,2.27-2.124v-1.011c-0.512,0.718-1.376,1.26-2.373,1.26c-1.845,0-3.149-1.377-3.149-3.662
			c0-2.271,1.289-3.677,3.149-3.677c0.952,0,1.802,0.469,2.373,1.245v-1.069h1.099v6.87c0,2.344-1.641,3.076-3.369,3.076
			C331.237,486.105,330.417,485.871,329.583,485.051 M334.708,481.198v-3.091c-0.381-0.615-1.23-1.143-2.109-1.143
			c-1.421,0-2.27,1.128-2.27,2.695c0,1.553,0.849,2.695,2.27,2.695C333.479,482.355,334.328,481.813,334.708,481.198"/>
		<path clip-path="url(#SVGID_47_)" fill="#FFFFFF" d="M342.413,483.234v-4.629c0-1.245-0.629-1.641-1.582-1.641
			c-0.864,0-1.685,0.527-2.094,1.099v5.171h-1.099v-7.075h1.099v1.025c0.498-0.586,1.464-1.201,2.519-1.201
			c1.479,0,2.256,0.747,2.256,2.285v4.966H342.413z"/>
		<path clip-path="url(#SVGID_47_)" fill="#FFFFFF" d="M344.932,479.689c0-2.051,1.465-3.706,3.487-3.706
			c2.138,0,3.398,1.67,3.398,3.794v0.278h-5.727c0.087,1.333,1.025,2.446,2.548,2.446c0.806,0,1.626-0.322,2.183-0.894l0.527,0.718
			c-0.703,0.703-1.655,1.084-2.812,1.084C346.441,483.41,344.932,481.901,344.932,479.689 M348.404,476.892
			c-1.509,0-2.256,1.274-2.314,2.358h4.643C350.718,478.195,350.015,476.892,348.404,476.892"/>
		<path clip-path="url(#SVGID_47_)" fill="#FFFFFF" d="M358.35,483.234v-1.055c-0.527,0.718-1.392,1.23-2.388,1.23
			c-1.845,0-3.149-1.407-3.149-3.706c0-2.256,1.289-3.721,3.149-3.721c0.952,0,1.817,0.469,2.388,1.245v-3.765h1.099v9.771H358.35z
			 M358.35,481.315v-3.208c-0.396-0.615-1.245-1.143-2.124-1.143c-1.421,0-2.271,1.172-2.271,2.739s0.85,2.725,2.271,2.725
			C357.105,482.429,357.954,481.931,358.35,481.315"/>
		<path clip-path="url(#SVGID_47_)" fill="#FFFFFF" d="M364.692,483.234v-9.771h1.099v3.765c0.571-0.776,1.421-1.245,2.387-1.245
			c1.846,0,3.15,1.465,3.15,3.721c0,2.3-1.304,3.706-3.15,3.706c-0.996,0-1.86-0.513-2.387-1.23v1.055H364.692z M367.9,482.429
			c1.436,0,2.285-1.157,2.285-2.725s-0.849-2.739-2.285-2.739c-0.864,0-1.729,0.527-2.109,1.143v3.208
			C366.171,481.931,367.036,482.429,367.9,482.429"/>
		<path clip-path="url(#SVGID_47_)" fill="#FFFFFF" d="M372.528,485.007c0.161,0.073,0.425,0.117,0.601,0.117
			c0.483,0,0.805-0.161,1.055-0.747l0.469-1.069l-2.96-7.148h1.187l2.358,5.801l2.344-5.801h1.201l-3.545,8.511
			c-0.425,1.024-1.143,1.421-2.08,1.436c-0.234,0-0.601-0.044-0.805-0.103L372.528,485.007z"/>
	</g>
</g>
</svg>
